<svg xmlns="http://www.w3.org/2000/svg" viewBox="0 0 128 128" width="128" height="128" role="img" aria-label="zanvil">
  <defs>
    <filter id="forgeGlow" x="-60%" y="-60%" width="220%" height="220%">
      <feGaussianBlur stdDeviation="6"/>
    </filter>
  </defs>
  <!-- tuile charbon arrondie -->
  <rect width="128" height="128" rx="28" fill="#1a1613"/>
  <!-- mark inséré (mis à l'échelle au centre) -->
  <g transform="translate(64,66) scale(0.78) translate(-64,-64)">
    <ellipse cx="64" cy="42" rx="42" ry="19" fill="#ff8a3d" opacity="0.45" filter="url(#forgeGlow)"/>
    <polygon points="10,48 28,38 100,38 100,58 78,58 76,84 94,84 97,106 31,106 34,84 52,84 50,58 28,58" fill="#5a6670"/>
    <polygon points="10,48 28,38 100,38 100,58 28,58" fill="#8896a3"/>
    <rect x="28" y="38" width="72" height="4.5" fill="#ff8a3d"/>
    <polygon points="10,48 28,38 28,40.5 13.5,48.5" fill="#5fae9f" opacity="0.85"/>
    <polygon points="30,11 34,20 30,29 26,20" fill="#ffd479"/>
    <circle cx="44" cy="13" r="2.4" fill="#ffd479"/>
    <circle cx="19" cy="28" r="1.7" fill="#ff8a3d"/>
  </g>
</svg>
