<svg xmlns="http://www.w3.org/2000/svg" viewBox="0 0 128 128" width="128" height="128" role="img" aria-label="zanvil">
  <!-- corps de l'enclume -->
  <polygon points="10,48 28,38 100,38 100,58 78,58 76,84 94,84 97,106 31,106 34,84 52,84 50,58 28,58" fill="#4a5560"/>
  <!-- face supérieure -->
  <polygon points="10,48 28,38 100,38 100,58 28,58" fill="#5e6a76"/>
  <!-- bande chauffée (braise foncée pour fond clair) -->
  <rect x="28" y="38" width="72" height="4.5" fill="#d4541e"/>
  <!-- liseré de trempe (corne) -->
  <polygon points="10,48 28,38 28,40.5 13.5,48.5" fill="#2f7d6e" opacity="0.9"/>
  <!-- étincelle -->
  <polygon points="30,11 34,20 30,29 26,20" fill="#c98a2e"/>
  <circle cx="44" cy="13" r="2.4" fill="#c98a2e"/>
</svg>
